{"title":"Rise.Of.The.Apes.2011.TS.XViD.AC3-SCR0N","uid":6587572,"size":1510957441,"categoryP":"video","categoryS":"movies","magnet":"?xt=urn:btih:68cf71f19799ed7785ee9cdb488040d17d0d7446&amp;dn=Rise.Of.The.Apes.2011.TS.XViD.AC3-SCR0N&amp;tr=udp%3A%2F%2Ftracker.openbittorrent.com%3A80&amp;tr=udp%3A%2F%2Fopen.demonii.com%3A1337&amp;tr=udp%3A%2F%2Ftracker.coppersurfer.tk%3A6969&amp;tr=udp%3A%2F%2Fexodus.desync.com%3A6969","seeders":0,"leechers":1,"uploader":"TvTeam","files":4,"time":1312674295,"description":". \n  &lt;a href=&quot;\nhttp://www.torrenting.com/&quot; rel=&quot;nofollow&quot; target=&quot;_NEW&quot;&gt;\nhttp://www.torrenting.com/&lt;/a&gt;        :     Greatest Movie Tracker on The Net!!!\n &lt;a href=&quot;\nhttp://www.Torrenting.com&quot; rel=&quot;nofollow&quot; target=&quot;_NEW&quot;&gt;\nhttp://www.Torrenting.com&lt;/a&gt;          :     Once &amp; For all ;)\n\n\n               www . Torrenting . Com \n\n(((((((((((((= Enjoy No RAR releases =))))))))))))))))))))\n\n\n...................................NFO:....................................\n\n.\n   General\n      Complete name :Rise Of The Apes 2011 TS XViD AC3-SCR0N\n      Format : AVI\n      Format/Info : Audio Video Interleave\n      Format profile : OpenDML\n      Format settings : rec\n      File size : 1.41 GiB\n      Duration : 1h 37mn\n      Overall bit rate : 2 056 Kbps\n      Writing application : AVI-Mux GUI 1.17.8.3, Feb 16 201019:42:50\n   Video #0\n      ID : 0\n      Format : MPEG-4 Visual\n      Format profile : Advanced Simple@L5\n      Format settings, BVOP : 2\n      Format settings, QPel : No\n      Format settings, GMC : No warppoints\n      Format settings, Matrix : Default (MPEG)\n      Codec ID : XVID\n      Codec ID/Hint : XviD\n      Duration : 1h 37mn\n      Bit rate : 1 859 Kbps\n      Width : 720 pixels\n      Height : 320 pixels\n      Display aspect ratio : 2.25:1\n      Frame rate : 25.000 fps\n      Color space : YUV\n      Chroma subsampling : 4:2:0\n      Bit depth : 8 bits\n      Scan type : Progressive\n      Compression mode : Lossy\n      Bits/(Pixel*Frame) : 0.323\n      Stream size : 1.27 GiB (90%)\n      Writing library : XviD 1.2.1 (UTC 2008-12-04)\n   Audio #1\n      ID : 1\n      Format : AC-3\n      Format/Info : Audio Coding 3\n      Mode extension : CM (complete main)\n      Codec ID : 2000\n      Duration : 1h 37mn\n      Bit rate mode : Constant\n      Bit rate : 192 Kbps\n      Channel(s) : 2 channels\n      Channel positions : Front: L R\n      Sampling rate : 44.1 KHz\n      Bit depth : 16 bits\n      Compression mode : Lossy\n      Delay relative to video : 104ms\n      Stream size : 135 MiB (9%)\n      Alignment : Split accross interleaves\n      Interleave, duration : 70 ms (1.74 video frames)\n      Interleave, preload duration : 208 ms\n      \nThanks to all p2p groups.....","torrent":{"xt":"urn:btih:68cf71f19799ed7785ee9cdb488040d17d0d7446","amp;dn":"Rise.Of.The.Apes.2011.TS.XViD.AC3-SCR0N","amp;tr":["udp%3A%2F%2Ftracker.openbittorrent.com%3A80","udp%3A%2F%2Fopen.demonii.com%3A1337","udp%3A%2F%2Ftracker.coppersurfer.tk%3A6969","udp%3A%2F%2Fexodus.desync.com%3A6969"],"infoHash":"68cf71f19799ed7785ee9cdb488040d17d0d7446","infoHashBuffer":{"type":"Buffer","data":[104,207,113,241,151,153,237,119,133,238,156,219,72,128,64,209,125,13,116,70]},"announce":[],"urlList":[]}}